HIERARCHY
ROOT hip
{
  OFFSET 0 0 0
  CHANNELS 6 Xposition Yposition Zposition Zrotation Yrotation Xrotation
  JOINT abdomen
  {
    OFFSET 0 20.6881 -0.73152
    CHANNELS 3 Zrotation Xrotation Yrotation
    JOINT chest
    {
      OFFSET 0 11.7043 -0.48768
      CHANNELS 3 Zrotation Xrotation Yrotation
      JOINT neck
      {
        OFFSET 0 22.1894 -2.19456
        CHANNELS 3 Zrotation Xrotation Yrotation
        JOINT head
        {
          OFFSET -0.24384 7.07133 1.2192
          CHANNELS 3 Zrotation Xrotation Yrotation
          JOINT leftEye
          {
            OFFSET 4.14528 8.04674 8.04672
            CHANNELS 3 Zrotation Xrotation Yrotation
            End Site
            {
              OFFSET 1 0 0
            }
          }
          JOINT rightEye
          {
            OFFSET -3.6576 8.04674 8.04672
            CHANNELS 3 Zrotation Xrotation Yrotation
            End Site
            {
              OFFSET 1 0 0
            }
          }
        }
      }
      JOINT rCollar
      {
        OFFSET -2.68224 19.2634 -4.8768
        CHANNELS 3 Zrotation Xrotation Yrotation
        JOINT rShldr
        {
          OFFSET -8.77824 -1.95073 1.46304
          CHANNELS 3 Zrotation Xrotation Yrotation
          JOINT rForeArm
          {
            OFFSET -28.1742 -1.7115 0.48768
            CHANNELS 3 Zrotation Xrotation Yrotation
            JOINT rHand
            {
              OFFSET -22.5879 0.773209 7.07136
              CHANNELS 3 Zrotation Xrotation Yrotation
              JOINT rThumb1
              {
                OFFSET -1.2192 -0.487915 3.41376
                CHANNELS 3 Zrotation Xrotation Yrotation
                JOINT rThumb2
                {
                  OFFSET -3.37035 -0.52449 3.41376
                  CHANNELS 3 Zrotation Xrotation Yrotation
                  End Site
                  {
                    OFFSET -1.78271 -1.18214 1.43049
                  }
                }
              }
              JOINT rIndex1
              {
                OFFSET -7.75947 0.938293 5.60832
                CHANNELS 3 Zrotation Xrotation Yrotation
                JOINT rIndex2
                {
                  OFFSET -2.54057 -0.884171 1.56538
                  CHANNELS 3 Zrotation Xrotation Yrotation
                  End Site
                  {
                    OFFSET -1.62519 -0.234802 1.16502
                  }
                }
              }
              JOINT rMid1
              {
                OFFSET -8.24714 1.18213 3.41376
                CHANNELS 3 Zrotation Xrotation Yrotation
                JOINT rMid2
                {
                  OFFSET -3.10165 -0.590103 1.0647
                  CHANNELS 3 Zrotation Xrotation Yrotation
                  End Site
                  {
                    OFFSET -2.48547 -0.328903 0.83742
                  }
                }
              }
              JOINT rRing1
              {
                OFFSET -8.82822 0.546677 1.51678
                CHANNELS 3 Zrotation Xrotation Yrotation
                JOINT rRing2
                {
                  OFFSET -2.60934 -0.819778 -0.0198488
                  CHANNELS 3 Zrotation Xrotation Yrotation
                  End Site
                  {
                    OFFSET -2.33842 -0.294052 0.168128
                  }
                }
              }
              JOINT rPinky1
              {
                OFFSET -8.27202 -0.0477905 -0.4584
                CHANNELS 3 Zrotation Xrotation Yrotation
                JOINT rPinky2
                {
                  OFFSET -1.82734 -0.647385 -0.700984
                  CHANNELS 3 Zrotation Xrotation Yrotation
                  End Site
                  {
                    OFFSET -1.69225 -0.51767 -0.607171
                  }
                }
              }
            }
          }
        }
      }
      JOINT lCollar
      {
        OFFSET 2.68224 19.2634 -4.8768
        CHANNELS 3 Zrotation Xrotation Yrotation
        JOINT lShldr
        {
          OFFSET 8.77824 -1.95073 1.46304
          CHANNELS 3 Zrotation Xrotation Yrotation
          JOINT lForeArm
          {
            OFFSET 28.1742 -1.7115 0.48768
            CHANNELS 3 Zrotation Xrotation Yrotation
            JOINT lHand
            {
              OFFSET 22.5879 0.773209 7.07136
              CHANNELS 3 Zrotation Xrotation Yrotation
              JOINT lThumb1
              {
                OFFSET 1.2192 -0.487915 3.41376
                CHANNELS 3 Zrotation Xrotation Yrotation
                JOINT lThumb2
                {
                  OFFSET 3.37035 -0.52449 3.41376
                  CHANNELS 3 Zrotation Xrotation Yrotation
                  End Site
                  {
                    OFFSET 1.78271 -1.18214 1.43049
                  }
                }
              }
              JOINT lIndex1
              {
                OFFSET 7.75947 0.938293 5.60832
                CHANNELS 3 Zrotation Xrotation Yrotation
                JOINT lIndex2
                {
                  OFFSET 2.54057 -0.884171 1.56538
                  CHANNELS 3 Zrotation Xrotation Yrotation
                  End Site
                  {
                    OFFSET 1.62519 -0.234802 1.16502
                  }
                }
              }
              JOINT lMid1
              {
                OFFSET 8.24714 1.18213 3.41376
                CHANNELS 3 Zrotation Xrotation Yrotation
                JOINT lMid2
                {
                  OFFSET 3.10165 -0.590103 1.0647
                  CHANNELS 3 Zrotation Xrotation Yrotation
                  End Site
                  {
                    OFFSET 2.48547 -0.328903 0.83742
                  }
                }
              }
              JOINT lRing1
              {
                OFFSET 8.82822 0.546677 1.51678
                CHANNELS 3 Zrotation Xrotation Yrotation
                JOINT lRing2
                {
                  OFFSET 2.60934 -0.819778 -0.0198488
                  CHANNELS 3 Zrotation Xrotation Yrotation
                  End Site
                  {
                    OFFSET 2.33842 -0.294052 0.168128
                  }
                }
              }
              JOINT lPinky1
              {
                OFFSET 8.27202 -0.0477905 -0.4584
                CHANNELS 3 Zrotation Xrotation Yrotation
                JOINT lPinky2
                {
                  OFFSET 1.82734 -0.647385 -0.700984
                  CHANNELS 3 Zrotation Xrotation Yrotation
                  End Site
                  {
                    OFFSET 1.69225 -0.51767 -0.607171
                  }
                }
              }
            }
          }
        }
      }
    }
  }
  JOINT rButtock
  {
    OFFSET -8.77824 4.35084 1.2192
    CHANNELS 3 Zrotation Xrotation Yrotation
    JOINT rThigh
    {
      OFFSET 0 -1.70687 -2.19456
      CHANNELS 3 Zrotation Xrotation Yrotation
      JOINT rShin
      {
        OFFSET 0 -36.8199 0.73152
        CHANNELS 3 Zrotation Xrotation Yrotation
        JOINT rFoot
        {
          OFFSET 0.73152 -45.1104 -5.12064
          CHANNELS 3 Zrotation Xrotation Yrotation
          End Site
          {
            OFFSET -1.1221 -3.69964 12.103
          }
        }
      }
    }
  }
  JOINT lButtock
  {
    OFFSET 8.77824 4.35084 1.2192
    CHANNELS 3 Zrotation Xrotation Yrotation
    JOINT lThigh
    {
      OFFSET 0 -1.70687 -2.19456
      CHANNELS 3 Zrotation Xrotation Yrotation
      JOINT lShin
      {
        OFFSET 0 -36.8199 0.73152
        CHANNELS 3 Zrotation Xrotation Yrotation
        JOINT lFoot
        {
          OFFSET -0.73152 -45.1104 -5.12064
          CHANNELS 3 Zrotation Xrotation Yrotation
          End Site
          {
            OFFSET 1.1221 -3.69964 12.103
          }
        }
      }
    }
  }
}
MOTION
Frames:	5
Frame Time:	0.00833333
0.0 0.0 0.0 0.0 0.0 0.0 0.0 0.0 0.0 0.0 0.0 0.0 0.0 0.0 0.0 0.0 0.0 0.0 0.0 0.0 0.0 0.0 0.0 0.0 0.0 0.0 0.0 0.0 0.0 0.0 0.0 0.0 0.0 0.0 0.0 0.0 0.0 0.0 0.0 0.0 0.0 0.0 0.0 0.0 0.0 0.0 0.0 0.0 0.0 0.0 0.0 0.0 0.0 0.0 0.0 0.0 0.0 0.0 0.0 0.0 0.0 0.0 0.0 0.0 0.0 0.0 0.0 0.0 0.0 0.0 0.0 0.0 0.0 0.0 0.0 0.0 0.0 0.0 0.0 0.0 0.0 0.0 0.0 0.0 0.0 0.0 0.0 0.0 0.0 0.0 0.0 0.0 0.0 0.0 0.0 0.0 0.0 0.0 0.0 0.0 0.0 0.0 0.0 0.0 0.0 0.0 0.0 0.0 0.0 0.0 0.0 0.0 0.0 0.0 0.0 0.0 0.0 0.0 0.0 0.0 0.0 0.0 0.0 0.0 0.0 0.0 0.0 0.0 0.0 0.0 0.0 0.0
96.3522 83.4268 -11.2276 60.08631 -85.8244 -55.636068 -0.007846 -1.691377 -0.265825 1.707821 -1.597955 1.552002 -9.199936 19.293824 -111.4541 16.380855 17.856374 107.195892 -0.00384 0.0 -8.4e-05 0.001149 -0.0 -0.000158 -0.02388 0.145006 0.031387 23.354763 -0.251713 -2.427988 -100.961093 66.916532 76.540175 89.856006 -70.03272 74.770117 3.025551 -3.006445 -0.386222 -18.527883 17.694751 14.437456 -108.427202 34.160466 91.742721 12.032396 -10.219871 -7.429637 -36.034629 51.723963 29.830884 5.343028 -5.83594 -0.601343 -145.122398 1.974009 -179.74973 11.967814 44.806955 -3.841629 -9.596085 -19.934562 -9.076396 -158.255266 52.481144 -149.827383 157.79714 -22.115669 -165.466636 -175.881411 0.02912 -163.223338 176.895937 49.555046 -134.080743 -165.169734 -26.780352 -142.107564 178.518873 -16.064403 -89.476243 40.502503 -21.25489 -2.325127 0.327744 0.529825 -0.186399 -0.97199 14.156774 -2.851036 22.005805 41.040886 -17.007261 -10.005408 -20.334336 1.487892 -0.001305 0.60563 -0.190245 23.425703 72.95458 -36.408821 -0.099215 0.25809 -0.092058 -43.147216 83.15484 5.885227 0.0 0.000716 -0.000154 1.086598 -10.311582 0.215767 3.050781 13.64275 27.031575 -118.478015 9.222612 32.149807 -4e-05 -0.000999 -2e-05 -0.790371 -7.247321 -6.240795 -9.826259 15.239081 -101.670538 -102.134842 78.403119 -178.893095
96.3792 83.3513 -11.5823 31.661579 -86.573645 -26.811054 -0.094535 -3.754918 -27.849633 3.285354 -1.628249 30.461933 3.355409 10.058845 49.214411 -11.953318 -9.180099 -57.670605 0.002187 0.0 0.000626 0.002187 0.0 0.000626 -143.156671 39.097506 147.584947 104.588752 -46.188901 107.868798 166.094426 44.515844 140.749575 172.150768 -7.539466 145.494143 -78.030413 38.690823 42.412419 -174.751532 -44.232915 79.081271 -152.465159 -19.225895 121.474266 -62.021003 57.382228 46.120452 68.980114 -80.155353 40.574243 167.497991 -64.007292 132.855183 0.001199 0.063755 0.020586 11.52027 -40.161497 -4.888899 6.80453 20.795293 6.064299 -153.133155 30.852708 -147.398707 78.728404 68.390473 -81.807694 115.786963 15.003739 -125.147794 -143.237875 76.732078 118.672339 13.720079 45.511681 -4.709324 -11.109768 -11.092278 0.64016 128.473384 -15.937356 -115.816612 -45.284054 -63.86492 -4.306861 3.415877 27.908583 -4.504228 170.283485 -36.723003 -145.339927 42.548242 58.28333 -36.536806 0.000627 0.022432 -0.008373 -10.825144 -54.313045 7.191963 145.397895 12.778295 142.022543 25.716114 -40.241792 27.028078 -179.994471 75.749654 -0.005704 -178.259525 58.431024 177.957451 7.661437 -31.422147 95.332775 90.475651 61.869043 7.252826 179.800141 75.749589 0.154041 177.589823 62.458763 -47.24531 -16.005685 13.333921 70.181036 -147.00698 -16.695727 5.302565
96.4222 83.3222 -11.715499999999999 16.238801 -86.352986 -11.215684 0.13824 -7.10494 -81.66519 2.927679 1.926787 85.388082 -15.781521 22.362084 -81.493498 32.411531 14.017328 68.168647 -0.002086 0.0 -0.000819 -0.001678 -0.0 0.005327 -0.04933 0.292399 0.064728 74.07032 39.636605 -6.019686 158.757804 37.564519 137.481218 173.043596 -2.809385 146.315944 177.525034 -19.766395 88.835244 -127.790024 17.618253 64.162349 159.639181 -69.972608 102.396233 -176.428809 -45.334075 111.286734 -10.975089 25.790033 7.639978 -163.236271 -4.943467 143.348225 -145.119611 0.310575 -179.224759 -152.412722 -24.954186 -175.35301 -152.504726 38.523919 -147.79562 -23.114472 -37.99229 -24.076792 157.797192 -22.115478 -165.467264 61.880097 12.242285 -3.099049 -33.506532 -39.752439 43.497465 -169.548437 -8.555051 -146.67043 7.350509 7.062686 -1.569367 145.462235 -51.968462 -115.32245 -9.089082 -15.965229 4.19631 5.192171 23.462095 -6.462521 141.480877 35.111566 -129.493964 11.679577 33.677111 -9.618242 0.000682 0.022831 -0.005623 -9.234426 12.719391 -1.665745 113.836927 -39.284126 111.847503 -3.128278 -0.351548 1.534572 179.991625 75.749082 0.006891 -178.362551 56.510142 -1.347768 -5.705908 41.616318 -132.692141 79.007435 -36.65942 161.727775 -0.000979 -0.000555 -0.000979 -3.351365 -17.920419 19.125917 17.933818 37.809626 106.727301 -177.574203 5.012541 113.494839
96.3972 83.3276 -11.629299999999999 17.998599 -86.261888 -13.088857 -2.960583 -10.90276 -180.0 -5.665837 0.869942 -176.015997 -11.396974 32.980242 -140.919561 17.864833 41.349155 122.154897 -0.00497 -0.0 0.00204 0.000493 0.0 0.000623 3.269528 -26.755761 -5.241783 89.706669 18.582354 -35.777707 -17.960415 -6.771371 24.505217 1.424726 3.477248 1.411724 -89.136172 38.427449 50.299132 -51.427896 -2.163664 46.065342 37.216323 -57.917624 -0.642098 -19.214918 40.048761 15.868628 -169.090497 -33.247129 145.3756 11.435932 -24.91512 -1.164765 -0.036808 5.254173 1.653941 -156.996252 -34.715045 175.968628 -156.865875 55.541754 -150.327718 15.253395 41.777103 6.293779 13.7441 42.431453 -15.569491 63.359772 17.660165 -148.730447 -4.274403 -5.437058 72.812594 -155.903819 -36.866221 -138.766534 -178.619098 -18.760107 -89.038087 37.139948 -24.745416 0.3936 145.337554 -6.264717 -118.677844 6.144122 27.850146 1.747155 0.339809 0.981911 -0.189345 85.923613 64.246805 -77.782003 -0.00079 0.022503 -0.007872 156.503841 -41.591898 -176.864516 155.357076 49.792557 149.602957 -10.140847 24.871124 -4.051771 0.001885 -2.8e-05 -0.0 0.994037 -22.134946 0.39287 7.257928 41.093991 88.236126 -168.496693 -23.410162 120.618451 -179.978285 75.748446 -0.017866 174.622618 54.281244 -0.0 -14.292714 36.488007 -35.944812 133.252233 38.449282 -35.084404
